# xmcd
#
# Track frame offsets: 
#        150
#        19299
#        32674
#        50377
#        69071
#        88453
#        106608
#        120018
#        137405
#        154886
#        177336
#        193203
#        207318
#        227693
#        247629
#
# Disc length: 3541 seconds
#
# Revision: 0
# Processed by: cddbd v1.5.2PL0 Copyright (c) Steve Scherf et al.
# Submitted via: ExactAudioCopy v1.0b1
#
DISCID=b90dd30f
DTITLE=BossHoss - Low Voltage
DYEAR=1900
DGENRE=
TTITLE0=The BossHoss - Stallion Battalion
TTITLE1=The BossHoss - Have Love Will Travel
TTITLE2=The BossHoss - Rodeo Queen
TTITLE3=The BossHoss - Shake and Shout
TTITLE4=The BossHoss - Go! Go! Go!
TTITLE5=The BossHoss - Rodeo Radio
TTITLE6=The BossHoss - Close
TTITLE7=The BossHoss - I Say A Little Prayer
TTITLE8=The BossHoss - Break Free
TTITLE9=The BossHoss - Mary Marry Me
TTITLE10=The BossHoss - Gay Bar
TTITLE11=The BossHoss - Remedy
TTITLE12=The BossHoss - Sugarman
TTITLE13=The BossHoss - No One Knows
TTITLE14=The BossHoss - Last Day
EXTD=
EXTT0=
EXTT1=
EXTT2=
EXTT3=
EXTT4=
EXTT5=
EXTT6=
EXTT7=
EXTT8=
EXTT9=
EXTT10=
EXTT11=
EXTT12=
EXTT13=
EXTT14=
PLAYORDER=
